<mxfile host="app.diagrams.net" agent="Mozilla/5.0 (Windows NT 10.0; Win64; x64) AppleWebKit/537.36 (KHTML, like Gecko) Chrome/133.0.0.0 Safari/537.36" version="26.0.16">
  <diagram name="Page-1" id="rSmVY7l8DbUkNPeMReCK">
    <mxGraphModel dx="1185" dy="632" grid="1" gridSize="10" guides="1" tooltips="1" connect="1" arrows="1" fold="1" page="1" pageScale="1" pageWidth="850" pageHeight="1100" math="0" shadow="0">
      <root>
        <mxCell id="0" />
        <mxCell id="1" parent="0" />
        <mxCell id="hPGDMdynyl7NbmfzZyHG-7" value="Authentication &amp;amp; Authorization" style="shape=rect;html=1;verticalAlign=top;fontStyle=1;whiteSpace=wrap;align=center;" vertex="1" parent="1">
          <mxGeometry x="250" y="100" width="390" height="710" as="geometry" />
        </mxCell>
        <mxCell id="hPGDMdynyl7NbmfzZyHG-1" value="Authenticate&amp;nbsp;" style="ellipse;whiteSpace=wrap;html=1;" vertex="1" parent="1">
          <mxGeometry x="330" y="190" width="140" height="70" as="geometry" />
        </mxCell>
        <mxCell id="hPGDMdynyl7NbmfzZyHG-2" value="User" style="shape=umlActor;html=1;verticalLabelPosition=bottom;verticalAlign=top;align=center;" vertex="1" parent="1">
          <mxGeometry x="100" y="230" width="30" height="60" as="geometry" />
        </mxCell>
        <mxCell id="hPGDMdynyl7NbmfzZyHG-6" value="" style="endArrow=none;html=1;rounded=0;" edge="1" parent="1" target="hPGDMdynyl7NbmfzZyHG-1">
          <mxGeometry width="50" height="50" relative="1" as="geometry">
            <mxPoint x="130" y="270" as="sourcePoint" />
            <mxPoint x="180" y="220" as="targetPoint" />
          </mxGeometry>
        </mxCell>
        <mxCell id="hPGDMdynyl7NbmfzZyHG-10" value="Service" style="shape=umlActor;html=1;verticalLabelPosition=bottom;verticalAlign=top;align=center;" vertex="1" parent="1">
          <mxGeometry x="100" y="370" width="30" height="60" as="geometry" />
        </mxCell>
        <mxCell id="hPGDMdynyl7NbmfzZyHG-13" value="" style="endArrow=none;html=1;rounded=0;exitX=1;exitY=0.3333333333333333;exitDx=0;exitDy=0;exitPerimeter=0;" edge="1" parent="1" source="hPGDMdynyl7NbmfzZyHG-10">
          <mxGeometry width="50" height="50" relative="1" as="geometry">
            <mxPoint x="140" y="280" as="sourcePoint" />
            <mxPoint x="344" y="246" as="targetPoint" />
          </mxGeometry>
        </mxCell>
        <mxCell id="hPGDMdynyl7NbmfzZyHG-18" value="ADFS" style="ellipse;whiteSpace=wrap;html=1;" vertex="1" parent="1">
          <mxGeometry x="680" y="200" width="140" height="70" as="geometry" />
        </mxCell>
        <mxCell id="hPGDMdynyl7NbmfzZyHG-20" value="" style="endArrow=none;html=1;rounded=0;exitX=0;exitY=0.5;exitDx=0;exitDy=0;" edge="1" parent="1" source="hPGDMdynyl7NbmfzZyHG-18">
          <mxGeometry width="50" height="50" relative="1" as="geometry">
            <mxPoint x="140" y="400" as="sourcePoint" />
            <mxPoint x="470" y="230" as="targetPoint" />
          </mxGeometry>
        </mxCell>
      </root>
    </mxGraphModel>
  </diagram>
</mxfile>
